<svg width="33" height="30" viewBox="0 0 33 30" fill="none" xmlns="http://www.w3.org/2000/svg">
<path d="M10.0499 13.75C11.159 13.75 12.0582 12.9105 12.0582 11.875C12.0582 10.8395 11.159 10 10.0499 10C8.94068 10 8.0415 10.8395 8.0415 11.875C8.0415 12.9105 8.94068 13.75 10.0499 13.75Z" fill="#414141"/>
<path d="M14.0666 17.5L12.0582 15L8.0415 20H24.1084L18.0833 12.5L14.0666 17.5Z" fill="#414141"/>
<path d="M26.7858 5H5.36336C3.88654 5 2.68555 6.12125 2.68555 7.5V22.5C2.68555 23.8787 3.88654 25 5.36336 25H26.7858C28.2627 25 29.4637 23.8787 29.4637 22.5V7.5C29.4637 6.12125 28.2627 5 26.7858 5ZM5.36336 22.5V7.5H26.7858L26.7885 22.5H5.36336V22.5Z" fill="#414141"/>
</svg>