<svg width="17" height="18" viewBox="0 0 17 18" fill="none" xmlns="http://www.w3.org/2000/svg">
<path d="M12.4814 5.91577C13.586 5.91577 14.4814 4.95436 14.4814 3.7684C14.4814 2.58244 13.586 1.62103 12.4814 1.62103C11.3769 1.62103 10.4814 2.58244 10.4814 3.7684C10.4814 4.95436 11.3769 5.91577 12.4814 5.91577Z" fill="#FF5EDE" stroke="#FF5EDE" stroke-linecap="round" stroke-linejoin="round"/>
<path d="M4.48145 10.9263C5.58601 10.9263 6.48145 9.96489 6.48145 8.77893C6.48145 7.59297 5.58601 6.63156 4.48145 6.63156C3.37688 6.63156 2.48145 7.59297 2.48145 8.77893C2.48145 9.96489 3.37688 10.9263 4.48145 10.9263Z" fill="#FF5EDE" stroke="#FF5EDE" stroke-linecap="round" stroke-linejoin="round"/>
<path d="M12.4814 15.9368C13.586 15.9368 14.4814 14.9754 14.4814 13.7895C14.4814 12.6035 13.586 11.6421 12.4814 11.6421C11.3769 11.6421 10.4814 12.6035 10.4814 13.7895C10.4814 14.9754 11.3769 15.9368 12.4814 15.9368Z" fill="#FF5EDE" stroke="#FF5EDE" stroke-linecap="round" stroke-linejoin="round"/>
<path d="M6.20801 9.85986L10.7613 12.7087" stroke="#FF5EDE" stroke-linecap="round" stroke-linejoin="round"/>
<path d="M10.7547 4.84933L6.20801 7.69818" stroke="#FF5EDE" stroke-linecap="round" stroke-linejoin="round"/>
</svg>
