<svg width="16" height="16" viewBox="0 0 16 16" fill="none" xmlns="http://www.w3.org/2000/svg">
<g clip-path="url(#clip0_238_962)">
<path d="M7.47429 2.66666H2.95902C2.61687 2.66666 2.28874 2.80713 2.0468 3.05718C1.80486 3.30723 1.66895 3.64637 1.66895 3.99999V13.3333C1.66895 13.6869 1.80486 14.0261 2.0468 14.2761C2.28874 14.5262 2.61687 14.6667 2.95902 14.6667H11.9896C12.3317 14.6667 12.6598 14.5262 12.9018 14.2761C13.1437 14.0261 13.2796 13.6869 13.2796 13.3333V8.66666" stroke="#414141" stroke-linecap="round" stroke-linejoin="round"/>
<path d="M12.312 1.66659C12.5686 1.40138 12.9166 1.25238 13.2795 1.25238C13.6424 1.25238 13.9905 1.40138 14.2471 1.66659C14.5037 1.93181 14.6479 2.29152 14.6479 2.66659C14.6479 3.04167 14.5037 3.40138 14.2471 3.66659L8.11922 9.99993L5.53906 10.6666L6.1841 7.99993L12.312 1.66659Z" stroke="#414141" stroke-linecap="round" stroke-linejoin="round"/>
</g>
<defs>
<clipPath id="clip0_238_962">
<rect width="15.4809" height="16" fill="white" transform="translate(0.378906)"/>
</clipPath>
</defs>
</svg>
